<?xml version="1.0" encoding="utf-8"?>
<!-- Generator: Adobe Illustrator 24.1.0, SVG Export Plug-In . SVG Version: 6.00 Build 0)  -->
<svg version="1.1" id="Ebene_1" xmlns="http://www.w3.org/2000/svg" xmlns:xlink="http://www.w3.org/1999/xlink" x="0px" y="0px"
	 viewBox="0 0 841.89 595.28" style="enable-background:new 0 0 841.89 595.28;" xml:space="preserve">
<style type="text/css">
	.st0{fill:#FFFFFF;}
	.st1{fill:#FFFFFF;stroke:#000000;stroke-width:2;stroke-linecap:round;stroke-linejoin:round;stroke-miterlimit:10;}
</style>
<g>
	<path class="st0" d="M521.2,404.82c0-3.44,0.06-6.65-0.02-9.86c-0.04-1.79,0.75-2.45,2.44-2.34c0.72,0.05,1.45,0.01,2.18,0.01
		c88.88,0,177.76,0.01,266.65,0.01c1.34,0,2.68,0,4.23,0c0-95.59,0-191,0-286.6c-247.24,0-494.48,0-741.89,0
		c0,95.48,0,190.89,0,286.6c1.36,0,2.58,0,3.8,0c89.09,0,178.18,0,267.27-0.02c4.94,0,4.47,0.02,4.46,4.35
		c-0.01,2.39-0.02,4.78-0.05,7.17c0,0.19-0.13,0.37-0.26,0.73c-95.74,0-191.55,0-287.85,0c0-1.12,0-2.31,0-3.5
		c0-24.93,0-49.87,0-74.8c0-76.25,0-152.51,0-228.76c0-4.28-0.58-4.38,4.43-4.38c252.72,0.02,505.43,0.02,758.15,0.03
		c0.1,0,0.21,0,0.31,0c4.3,0,4.31,0,4.31,4.18c0,101.19,0,202.37,0,303.56c0,1.13,0,2.27,0,3.63
		C713.33,404.82,617.45,404.82,521.2,404.82z"/>
	<path class="st0" d="M398.84,380.51c-4.29-2.31-9.06-4.3-13.17-7.22c-5.55-3.95-6.25-11.75-3.21-16.81
		c3.87-6.42,10.79-8.68,17.25-5.81c1.11,0.49,2.18,1.09,3.27,1.65c0.32-2.5,0.27-5.1,1.04-7.44c1.79-5.42,6.13-8.27,11.5-8.84
		c4.78-0.51,9,1.33,12.09,5.38c2.72,3.57,5.66,6.98,8.57,10.54c1.94-3.03,4.46-5.27,8.04-6.25c9.63-2.64,17.37,3.94,17.62,12.67
		c0.33,11.62,0.14,23.26,0.04,34.9c-0.02,2.32,0.64,3.82,2.68,5.04c3.07,1.84,5.86,4.16,8.95,5.96c1.73,1.01,2.15,2.21,2.12,4.02
		c-0.08,4.15,0.02,8.31-0.03,12.46c-0.17,13.26-0.38,26.52-0.58,39.78c-0.01,0.5-0.08,1-0.13,1.65c-3.02,0.39-5.74,0.25-8.44-1.2
		c-6.59-3.53-13.6-6.01-20.87-7.7c-3.62-0.84-7.24-0.19-10.51,1.41c-5.28,2.59-10.87,3.26-16.51,2.58
		c-3.27-0.39-6.46-1.82-9.57-3.06c-4.83-1.92-9.59-4.05-14.34-6.18c-0.86-0.39-1.77-1.08-2.23-1.88c-3.2-5.58-6.29-11.22-9.42-16.84
		c-1.85-3.31-3.13-6.68-0.96-10.4c-4.2-2.4-5.8-6.34-5.98-10.56c-0.14-3.31,1.03-6.66,3.54-9.19c5.71-5.75,11.45-11.47,17.21-17.18
		C397.48,381.31,398.36,380.86,398.84,380.51z M465.55,410.36c-3.67-2.46-7.23-5.05-11-7.31c-1.84-1.1-2.77-2.66-3.59-4.43
		c-0.86-1.84-1.66-3.72-2.52-5.56c-2.17-4.62-4.15-9.34-6.6-13.81c-3.27-5.98-5.23-12.71-10.04-17.84c-1.32-1.41-2.36-3.08-3.57-4.6
		c-2.7-3.36-5.34-6.77-8.17-10.02c-1.87-2.14-4.46-1.95-6.43,0.21c-1.5,1.63-1.4,4.15,0.43,6.09c2.35,2.49,4.76,4.94,7.28,7.26
		c1.8,1.66,3.73,3.23,5.78,4.55c2.07,1.33,3.54,2.97,4.58,5.21c1.64,3.51,3.54,6.91,5.33,10.35c3.45,6.61,6.92,13.2,10.29,19.85
		c0.23,0.46-0.18,1.7-0.66,2.01c-2.2,1.41-4.52,2.62-6.85,3.92c-3.46-4.82-6.9-9.52-10.24-14.3c-0.83-1.19-1.67-1.9-3.23-1.89
		c-7.69,0.06-15.38,0-23.07,0.07c-0.83,0.01-1.86,0.37-2.44,0.94c-4.76,4.64-9.49,9.31-14.12,14.08c-2.1,2.16-0.92,5.68,1.79,6.92
		c1.87,0.85,2.99,0.03,4.12-0.98c3.08-2.75,5.96-5.74,9.14-8.37c1.75-1.45,3.09-3.79,5.68-3.85c4.78-0.12,9.56-0.09,14.34,0.02
		c0.79,0.02,1.83,0.56,2.3,1.19c3.63,4.94,7.14,9.97,10.7,14.96c0.85,1.19,0.96,2.3,0.11,3.58c-3.61,5.42-7.17,10.88-10.77,16.35
		c-4.35,0-8.61,0.06-12.86-0.05c-0.77-0.02-1.72-0.54-2.24-1.14c-2.48-2.86-4.86-5.82-7.24-8.77c-1.89-2.34-4.29-3.47-7.3-3.12
		c-1.36,0.16-2.7,0.49-4.44,0.81c3.28,5.72,6.36,11.13,9.49,16.51c0.33,0.56,0.9,1.11,1.49,1.35c5.57,2.27,11.13,4.58,16.77,6.65
		c3.98,1.46,8.06,1.41,11.98-0.44c3.64-1.72,7.49-2.7,11.48-3.04c5.77-0.49,11.15,1.22,16.46,3.15c2.57,0.93,5.06,2.04,7.84,3.17
		C465.55,436.72,465.55,423.68,465.55,410.36z M426.35,380.74c-0.83-1.68-1.6-3.01-2.15-4.42c-0.86-2.24-2.32-3.7-4.58-4.62
		c-1.96-0.8-3.74-2.04-5.63-3.02c-5.97-3.1-11.93-6.21-17.94-9.23c-1.99-1-3.87-0.56-5,0.86c-1.18,1.47-1.23,3.92,0.12,5.42
		c0.73,0.81,1.75,1.43,2.76,1.89c6.48,2.98,13.01,5.87,19.49,8.83c0.91,0.42,1.92,0.94,2.51,1.7c1.69,2.21,3.82,2.93,6.49,2.6
		C423.56,380.62,424.71,380.74,426.35,380.74z M402.43,414.52c4.66,2.37,7.53,5.87,10.36,9.28c1.17,1.41,2.17,1.93,3.8,1.83
		c0.92-0.06,1.84-0.01,2.51-0.01c1.63-2.5,3.06-4.74,4.56-6.93c0.73-1.06,0.68-2-0.04-3.01c-1.42-2-2.74-4.06-4.24-6
		c-0.52-0.67-1.4-1.36-2.19-1.45c-4.54-0.56-8.8-0.12-11.92,3.86C404.56,412.97,403.54,413.58,402.43,414.52z M452.05,378.99
		c0.18-0.02,0.36-0.04,0.54-0.05c0-6.51,0.06-13.03-0.05-19.54c-0.02-1.15-0.67-2.31-1.14-3.42c-0.94-2.16-6.11-1.92-6.75,0.29
		c-0.57,1.99-1.13,4.49-0.42,6.25C446.51,368.14,449.4,373.52,452.05,378.99z"/>
	<path class="st0" d="M469.59,274.14c-0.08-0.8-0.2-1.13-0.13-1.41c0.23-0.88,0.54-1.75,0.82-2.63c1.08-0.3,2.16-0.85,3.23-0.84
		c3.17,0.04,4.17-1.8,4.69-4.54c2.02-10.71,4.14-21.4,6.27-32.09c1.12-5.59,2.37-11.16,3.52-16.75c0.31-1.49,0.7-3.03,0.63-4.52
		c-0.06-1.28-0.55-2.6-2.36-2.7c-1.19-0.07-2.36-0.49-3.49-0.73c-0.41-4.07-0.16-4.33,3.58-4.17c5.26,0.22,10.53,0.53,15.79,0.54
		c3.91,0.01,7.84-0.68,11.74-0.51c7.02,0.31,13.75,1.83,19.59,6.12c6.17,4.53,9.28,10.72,10.18,18.18
		c0.97,8.09-0.92,15.76-3.9,23.12c-1.81,4.46-4.99,8.07-8.5,11.46c-6.57,6.34-14.7,9.07-23.32,10.74c-2.81,0.55-5.74,0.68-8.61,0.71
		c-8.83,0.09-17.67,0.03-26.51,0.03C471.79,274.14,470.76,274.14,469.59,274.14z M528.29,230.62c-0.27-2.16-0.54-4.4-0.84-6.63
		c-0.94-6.81-6.54-14-13.62-14.71c-2.44-0.25-4.91-0.33-7.35-0.61c-1.77-0.2-2.73,0.61-3.23,2.17c-0.28,0.87-0.58,1.75-0.75,2.64
		c-1.1,5.91-2.12,11.84-3.24,17.74c-2.03,10.7-4.14,21.39-6.16,32.1c-0.81,4.27,0.48,5.84,4.83,5.8c2.45-0.02,4.93-0.22,7.35-0.62
		c5.92-0.98,10.63-3.96,14.14-8.88C525.61,250.96,527.32,241,528.29,230.62z"/>
	<path class="st0" d="M556.09,245.49c0.36-11.14,4.06-20.82,11.84-29.08c5.87-6.23,12.82-10.42,20.95-12.44
		c11.32-2.81,22.1,0.93,28.86,11.34c4.48,6.91,5.78,14.53,4.67,22.87c-1,7.6-3.88,14.19-8.4,20.07
		c-5.84,7.59-13.54,12.68-22.82,15.26c-10.68,2.97-20.21,1.11-27.7-7.42C558.39,260.3,555.79,253.37,556.09,245.49z M607.38,229.29
		c-0.34-2.32-0.6-5.92-1.46-9.37c-0.89-3.56-2.52-6.97-5.48-9.33c-4.78-3.81-9.62-2.99-14.31-0.36c-3.83,2.15-6.17,5.75-8.06,9.49
		c-3.19,6.31-4.99,13.06-5.84,20.14c-0.77,6.41-0.83,12.69,0.74,18.95c0.83,3.32,2.32,6.3,5.01,8.5c4.34,3.54,10.41,3.17,15.19,0.13
		c4.11-2.62,6.43-6.65,8.37-10.77C605.43,248.45,606.94,239.6,607.38,229.29z"/>
	<path class="st0" d="M373.92,241.84c-1.76-1.46-1.55-3.2-0.47-4.45c3.82-4.43,7.58-8.97,13.5-10.85c5.51-1.74,10.2,2.65,9.34,8.54
		c-0.28,1.89-0.73,3.76-0.7,5.85c1.34-1.82,2.56-3.75,4.03-5.45c2.63-3.03,5.09-6.25,8.81-8.12c6.01-3.02,11.15-0.03,11.01,6.72
		c-0.09,4.17-0.82,8.34-1.47,12.48c-0.83,5.33-1.88,10.63-2.8,15.95c-0.1,0.6-0.01,1.23-0.01,2.14c4.84,0.62,5.79-4.02,8.78-5.71
		c1.62,1.77,1.77,2.56,0.25,4.61c-3.62,4.86-8.05,8.76-13.88,10.75c-3.55,1.21-7.39-1.47-8.33-5c-0.97-3.62,0.46-6.88,0.91-10.24
		c0.8-6.04,2.36-11.98,3.45-17.99c0.18-0.97-0.43-2.08-0.68-3.15c-2.47,0.25-3.6,1.96-4.58,3.36c-5.52,7.85-9.29,16.48-10.9,26
		c-0.3,1.8-0.87,3.56-1.23,5.36c-0.28,1.39-1.27,1.47-2.34,1.48c-2.6,0.01-5.2,0.06-7.79-0.01c-2.02-0.06-2.64-0.78-2.29-2.74
		c0.59-3.31,1.31-6.6,1.94-9.9c1.23-6.4,2.47-12.8,3.65-19.22c0.3-1.61,0.49-3.24,0.56-4.87c0.03-0.62-0.41-1.27-0.67-2
		C378.35,236.47,376.84,239.78,373.92,241.84z"/>
	<path class="st0" d="M296.87,261.12c6.47-5.07,11.06-10.96,11.08-19.55c0.01-2.3-0.75-4.19-2.1-5.95c-0.8-1.05-1.56-2.13-2.35-3.2
		c0.44-0.83,0.81-1.55,1.21-2.26c1.62-2.83,5.04-4.56,7.7-3.92c3.99,0.95,6.37,3.76,6.71,7.41c0.54,5.81-1.9,10.61-4.98,15.14
		c-4.54,6.68-9.9,12.65-16.31,17.6c-3.07,2.37-6.22,4.65-9.42,6.84c-0.86,0.59-2.04,0.72-3.21,1.1c-2.27-6.3-3.14-12.55-3.51-18.87
		c-0.38-6.37-0.6-12.76-0.9-19.29c-3.3,0.68-4.61,3.82-7.08,5.78c-1.21-1.5-1.7-2.97-0.5-4.41c3.5-4.17,7.18-8.17,12.26-10.46
		c1.26-0.57,2.75-0.85,4.14-0.88c3-0.05,4.34,1.26,4.5,4.25c0.26,5.11,0.34,10.22,0.67,15.32c0.3,4.71,0.82,9.4,1.29,14.09
		C296.13,260.22,296.5,260.54,296.87,261.12z"/>
	<path class="st0" d="M257.81,258.06c2.55,3.36,2.58,3.41,0.31,5.63c-3.83,3.75-7.98,7.07-12.93,9.25
		c-6.97,3.07-14.11,0.8-16.54-7.25c-1.92-6.36-1.02-12.58,1.43-18.46c3.07-7.38,7.65-13.83,14.68-18.07c4.81-2.9,9.8-4.02,15.5-1.93
		c5.81,2.13,6.98,7.49,5.18,12.52c-1.69,4.72-5.64,7.45-9.89,9.65c-3.99,2.07-8.09,3.93-12.69,4.17c-1.14,0.06-1.82,0.65-1.68,1.76
		c0.27,2.21,0.36,4.52,1.14,6.56c1.34,3.53,4.98,4.44,8.38,2.38c1.31-0.79,2.65-1.59,3.8-2.59
		C255.63,260.68,256.57,259.43,257.81,258.06z M241.78,248.83c0.18,0.22,0.37,0.44,0.55,0.67c1.3-0.72,2.73-1.27,3.87-2.19
		c4.67-3.77,7.6-8.43,6.79-14.74c-0.26-2.02-2.11-2.86-3.77-1.64c-0.97,0.72-1.85,1.69-2.47,2.73
		C243.96,238.35,242.63,243.52,241.78,248.83z"/>
	<path class="st0" d="M357.28,258.63c2.25,2.55,2.32,2.85,0.11,4.96c-4.31,4.12-8.77,8.17-14.62,9.91
		c-8.9,2.65-14.24-2.17-15.5-10.34c-1.59-10.26,2.26-18.9,8.62-26.75c3.79-4.68,8.22-8.14,14.1-9.75c4.69-1.28,8.98-0.42,12.75,2.43
		c2.76,2.08,3.37,6.35,1.91,10.53c-1.58,4.54-5.27,7.3-9.26,9.46c-4.11,2.23-8.41,4.23-13.23,4.48c-1.3,0.07-1.98,0.68-1.83,1.94
		c0.26,2.11,0.34,4.32,1.05,6.29c1.25,3.46,5.14,4.63,8.35,2.55C352.31,262.67,354.65,260.64,357.28,258.63z M340.97,248.88
		c0.19,0.2,0.38,0.4,0.57,0.6c1.3-0.72,2.75-1.26,3.89-2.18c4.58-3.71,7.46-8.29,6.74-14.48c-0.29-2.49-2.12-3.23-4.06-1.65
		c-0.8,0.64-1.61,1.38-2.11,2.26C343.28,238.24,341.72,243.44,340.97,248.88z"/>
	<path class="st0" d="M451.2,264.82c4.61-0.01,6.12-3.54,8.45-5.94c1.83,1.51,2.34,2.91,1.09,4.2c-3.94,4.04-7.5,8.61-13.06,10.64
		c-1.37,0.5-3.01,0.95-4.36,0.66c-4.26-0.93-6.45-4.43-5.63-9.07c1.39-7.82,3.01-15.6,4.55-23.39c0.49-2.47,1.02-4.94,1.56-7.56
		c-2.65-0.12-5.18-0.23-8.07-0.36c1.79-4.51,4.81-5.89,9-5.3c0.3-1.22,0.78-2.29,0.77-3.35c-0.05-4.24,2.34-6.61,5.87-8.31
		c2.1-1.01,4.02-2.43,6.16-3.31c1.87-0.77,2.81,0.04,2.49,1.89c-0.72,4.21-1.56,8.4-2.41,12.93c3.02,0,5.96,0,9.11,0
		c0.08,1.2,0.21,2.1,0.19,2.99c-0.04,1.73-0.96,2.66-2.72,2.67c-2.48,0.01-4.96,0-7.68,0C454.79,244.42,451.73,254.27,451.2,264.82z
		"/>
	<path class="st1" d="M249.87,228.8c-0.52,0.16-1.04,0.31-1.56,0.47"/>
	<path class="st1" d="M349.04,228.8c-0.52,0.16-1.04,0.31-1.56,0.47"/>
</g>
</svg>
